<svg xmlns="http://www.w3.org/2000/svg" xmlns:xlink="http://www.w3.org/1999/xlink" viewBox="3173.633 241 58.148 92.973"><defs><style>.a{fill:#cfcfcf;}.b{clip-path:url(#a);}.c{fill:#fff;}</style><clipPath id="a"><rect class="a" width="58.148" height="92.973" transform="translate(44 857)"/></clipPath></defs><g class="b" transform="translate(3129.633 -616)"><path class="c" d="M143.608,7.038C138.377,3.709,132.481,0,121.258,0s-17.119,3.709-22.35,7.038c-4.85,3.043-9.13,5.8-18.07,5.8s-13.22-2.663-18.07-5.8C57.538,3.709,51.642,0,40.419,0S23.3,3.709,18.07,7.038c-4.85,3.043-9.13,5.8-18.07,5.8V23.491c11.222,0,17.119-3.709,22.35-7.038,4.85-3.043,9.13-5.8,18.07-5.8s13.22,2.663,18.07,5.8c5.231,3.329,11.127,7.038,22.35,7.038s17.119-3.709,22.35-7.038c4.85-3.043,9.13-5.8,18.07-5.8s13.22,2.663,18.07,5.8c5.231,3.329,11.127,7.038,22.35,7.038V12.744C152.643,12.744,148.458,10.081,143.608,7.038Zm-22.35,13.22c-11.222,0-17.119,3.709-22.35,7.038-4.85,3.043-9.13,5.8-18.07,5.8s-13.22-2.663-18.07-5.8c-5.231-3.329-11.127-7.038-22.35-7.038S23.3,23.966,18.07,27.295C13.22,30.338,8.94,33.1,0,33.1V43.748c11.222,0,17.119-3.709,22.35-7.038,4.85-3.043,9.13-5.8,18.07-5.8s13.22,2.663,18.07,5.8c5.231,3.234,11.127,6.943,22.35,6.943s17.119-3.709,22.35-7.038c4.85-3.043,9.13-5.8,18.07-5.8s13.22,2.663,18.07,5.8c5.231,3.329,11.127,7.038,22.35,7.038V33c-8.94,0-13.22-2.663-18.07-5.8C138.377,23.966,132.481,20.257,121.258,20.257Zm0,22.35c-11.222,0-17.119,3.709-22.35,7.038-4.85,3.043-9.13,5.8-18.07,5.8s-13.22-2.663-18.07-5.8c-5.231-3.329-11.127-7.038-22.35-7.038S23.3,46.316,18.07,49.645c-4.85,3.043-9.13,5.8-18.07,5.8V66.1c11.222,0,17.119-3.709,22.35-7.038,4.85-3.043,9.13-5.8,18.07-5.8s13.22,2.663,18.07,5.8C63.72,62.389,69.617,66.1,80.839,66.1s17.119-3.709,22.35-7.038c4.85-3.043,9.13-5.8,18.07-5.8s13.22,2.663,18.07,5.8c5.231,3.329,11.127,7.038,22.35,7.038V55.446c-8.94,0-13.22-2.663-18.07-5.8C138.377,46.316,132.481,42.607,121.258,42.607Zm0,21.3c-11.222,0-17.119,3.709-22.35,7.038-4.85,3.043-9.13,5.8-18.07,5.8s-13.22-2.663-18.07-5.8c-5.231-3.329-11.127-7.038-22.35-7.038S23.3,67.619,18.07,70.948c-4.85,3.043-9.13,5.8-18.07,5.8V87.4c11.222,0,17.119-3.709,22.35-7.038,4.85-3.043,9.13-5.8,18.07-5.8s13.22,2.663,18.07,5.8C63.72,83.692,69.617,87.4,80.839,87.4s17.119-3.709,22.35-7.038c4.85-3.043,9.13-5.8,18.07-5.8s13.22,2.663,18.07,5.8c5.231,3.329,11.127,7.038,22.35,7.038V76.749c-8.94,0-13.22-2.663-18.07-5.8C138.377,67.714,132.481,63.91,121.258,63.91Z" transform="translate(60.032 862.183)"/></g></svg>