<svg xmlns="http://www.w3.org/2000/svg" viewBox="2219 63.696 91.899 144.845"><defs><style>.a{fill:#c5050c;}</style></defs><path class="a" d="M91.478,51.959A77.165,77.165,0,0,0,86.7,31.95c0-.177-.354-.708-.354-.885A42.509,42.509,0,0,0,79.26,19.732c-5.135-5.489-11.333-8.5-18.238-8.677h-.177c-1.062-2.479-4.073-4.073-6.729-4.6,0,0-1.594-6.552-8.145-6.552s-8.145,6.552-8.145,6.552c-2.656.354-5.666,2.125-6.729,4.427h-.177a25.681,25.681,0,0,0-18.061,8.854A37.523,37.523,0,0,0,5.775,31.065c0,.177-.354.708-.354.885A70.6,70.6,0,0,0,.64,51.959c-3.9,37.539,13.1,83.578,43.383,90.661.531.708,1.594,2.125,2.125,2.125s1.594-1.417,2.125-2.125C78.374,135.537,95.2,89.5,91.478,51.959Zm-1.417.177a3.9,3.9,0,0,0,.177,1.417,11.9,11.9,0,0,0-4.25.708c-.885-11.687-4.073-21.249-8.854-27.8A8.92,8.92,0,0,1,80.676,23.8C85.634,30.533,89,40.272,90.061,52.136ZM30.919,25.044c-1.062.354-1.24,2.125-1.062,3.364.177,1.417.885,2.833,1.771,2.656,1.417-.177,2.656-3.364,2.479-5.666-.177-3.364-1.948-4.25-3.187-4.25-1.771,0-3.187,2.833-3.187,6.552s1.417,6.552,3.187,6.552c.708,0,14.52,1.948,13.457-10.093a15.625,15.625,0,0,0-7.26-11.687c3.01-1.771,7.083,1.417,8.145,5.312.177.885.708.708.885,0,1.24-4.073,4.781-7.083,7.791-5.312a15.346,15.346,0,0,0-6.906,11.687C45.97,36.2,59.782,34.429,60.49,34.252c1.771,0,3.187-2.833,3.187-6.552s-1.417-6.552-3.187-6.552c-1.062,0-3.01.885-3.187,4.25-.177,2.3,1.062,5.489,2.479,5.666.708.177,1.417-1.24,1.771-2.656.177-1.24.177-3.01-1.062-3.364-.354,0-.708.177-.708.531s.708.885.708,2.3c0,2.125-2.125,1.062-1.771-2.3.177-2.833,1.771-2.656,1.771-2.656.885,0,2.125,1.771,2.125,4.958,0,2.833-1.417,6.02-4.073,4.427-2.3-1.594-3.187-5.489-2.479-8.322.354-1.417,1.417-4.958,5.135-4.958,5.312,0,10.27,2.833,14.343,7.968h0c-.354,1.24-2.656,6.375-11.51,11.51h0a17.989,17.989,0,0,0-9.739-2.656c-4.958,0-6.375,2.479-8.677,2.479h0c-2.3,0-3.719-2.479-8.677-2.479A17.018,17.018,0,0,0,27.378,38.5h0c-8.854-5.135-10.978-10.093-11.51-11.51,4.073-5.312,9.031-8.145,14.52-8.145,3.719,0,4.958,3.719,5.135,4.958.708,3.01-.354,6.729-2.479,8.322-2.656,1.594-4.073-1.417-4.073-4.427,0-3.187,1.24-4.958,2.125-4.958,0,0,1.594-.177,1.771,2.656.354,3.364-1.771,4.25-1.771,2.3,0-1.417.708-1.948.708-2.3A1.353,1.353,0,0,0,30.919,25.044ZM31.1,59.4s6.02,25.5,7.26,31.342c1.062-6.906,6.375-41.258,6.375-41.258V49.3h1.417v.177s7.437,35.237,8.677,41.789c1.24-5.135,7.437-31.873,7.437-31.873a1.811,1.811,0,0,0-.354-1.771,2.355,2.355,0,0,0-1.417-.531h-.354l-.708.177v-3.01H68.99v3.187h-.708a1.572,1.572,0,0,0-1.594,1.24L54.647,113.049H53.053v-.177c0-.354-6.375-32.581-7.437-38.6-.885,6.02-5.843,38.248-5.843,38.6v.177H38v-.177c-.885-2.479-12.926-54.361-12.926-54.361a1.958,1.958,0,0,0-1.594-1.417h-.531V54.261h10.27v3.01H32.69a2.537,2.537,0,0,0-1.24.354,2.164,2.164,0,0,0-.531,1.594C30.919,59.042,31.1,59.219,31.1,59.4ZM65.271,39.033C73.416,34.252,75.9,29.825,76.6,27.7c4.6,6.375,7.791,15.936,8.322,27.977a28.079,28.079,0,0,1-9.562,2.833C74.125,52.313,71.646,43.637,65.271,39.033Zm-38.6,0c-6.375,4.6-9.031,13.28-9.916,19.478a30.263,30.263,0,0,1-9.739-2.656c.708-12.041,3.719-21.6,8.322-27.977C16.045,29.825,18.7,34.429,26.669,39.033ZM16.576,59.4a39.682,39.682,0,0,0-.531,5.489v7.26a66.552,66.552,0,0,0,1.594,11.51v.354a72.192,72.192,0,0,0,4.25,13.28c1.417,3.01,2.833,5.843,4.25,8.322-2.833,2.656-7.083,3.541-8.5,3.9C10.025,94.279,6.129,74.447,7.014,56.74A26.2,26.2,0,0,0,16.576,59.4ZM26.669,106.32c5.135,8.854,10.093,13.989,13.989,16.822-1.417,3.541-4.781,6.375-5.843,7.26-6.729-4.427-12.218-11.51-16.645-20.186A16.034,16.034,0,0,0,26.669,106.32Zm14.874,17.353h0a17.04,17.04,0,0,0,4.427,2.479,17.04,17.04,0,0,0,4.427-2.479l.177-.177a19.922,19.922,0,0,0,5.843,7.26,27.347,27.347,0,0,1-6.02,3.01v-.177c-.354-2.125-3.364-2.656-4.427-2.656s-3.9.531-4.25,2.656v.177a22.82,22.82,0,0,1-5.843-3.01A21.418,21.418,0,0,0,41.543,123.673Zm9.739-.531c3.9-2.833,8.854-7.968,13.989-16.822a18.12,18.12,0,0,0,8.322,3.9c-4.25,8.5-9.916,15.582-16.468,20.186C55.886,129.34,52.7,126.684,51.282,123.142Zm14.343-17.53c1.417-2.479,2.833-5.312,4.25-8.322a72.192,72.192,0,0,0,4.25-13.28v-.354a62.133,62.133,0,0,0,1.594-11.51v-7.26a39.681,39.681,0,0,0-.531-5.489,26.2,26.2,0,0,0,9.562-2.656c.531,17.707-3.187,37.362-10.8,52.767C72.354,109.153,68.281,108.091,65.625,105.612ZM60.667,12.649c7.791,0,14.52,3.719,19.478,10.447A13.266,13.266,0,0,0,76.6,25.753C72.531,20.44,67.4,17.43,61.553,17.43c-3.541,0-6.02,2.656-6.729,6.2a11.081,11.081,0,0,0,1.771,8.5c.885.885.531,1.24.177,1.24-2.3,0-9.031-1.417-8.322-8.854A13.248,13.248,0,0,1,53.939,14.42,13.405,13.405,0,0,1,60.667,12.649ZM45.97,1.317c5.312,0,6.552,5.135,6.552,5.135a2.246,2.246,0,0,0-1.062.177l-.885.177a7,7,0,0,0-4.25,3.541.173.173,0,0,1-.177.177l-.177-.177a7,7,0,0,0-4.25-3.541l-.885-.177c-.354,0-.708-.177-1.062-.177S40.658,1.317,45.97,1.317Zm-7.083,6.2A6.856,6.856,0,0,1,45.439,12.3c.177.708.708.708.885,0a6.856,6.856,0,0,1,6.552-4.781,6.949,6.949,0,0,1,6.2,3.719,16.579,16.579,0,0,0-2.833.708,4.489,4.489,0,0,0-4.6-1.062c-2.479.708-4.427,3.187-5.489,5.312h0c-1.062-2.125-3.01-4.6-5.489-5.312a4.849,4.849,0,0,0-4.6,1.062,9.472,9.472,0,0,0-2.833-.708A5.828,5.828,0,0,1,38.887,7.514Zm-7.614,5.135a11.953,11.953,0,0,1,6.375,1.771,13.248,13.248,0,0,1,5.489,10.093c.708,7.437-6.906,8.677-8.5,8.677-.177,0-.354-.177.354-1.062a11.08,11.08,0,0,0,1.771-8.5c-.708-3.364-3.187-6.2-6.729-6.2-5.843,0-10.978,3.01-15.051,8.322A10.366,10.366,0,0,0,11.441,23.1C16.753,16.368,23.482,12.649,31.273,12.649ZM1.7,52.136c1.24-11.864,4.427-21.6,9.385-28.332a10.366,10.366,0,0,1,3.541,2.656c-4.781,6.552-7.791,16.114-8.854,27.8a11.288,11.288,0,0,0-4.25-.708A3.9,3.9,0,0,0,1.7,52.136Zm8.677,55.424A112.963,112.963,0,0,1,1.7,54.438a11.9,11.9,0,0,1,4.25.708v1.062a111.319,111.319,0,0,0,10.27,52.767,10.281,10.281,0,0,0-4.25,1.948C11.441,109.862,10.91,108.8,10.379,107.56Zm1.948,4.25a9.091,9.091,0,0,1,4.25-1.771c4.427,8.677,10.093,16.114,16.645,20.895a11.027,11.027,0,0,0-2.656,3.718C23.482,129.517,17.285,121.726,12.327,111.809Zm18.947,23.2a11.028,11.028,0,0,1,2.656-3.719,37.123,37.123,0,0,0,7.437,3.9,11.558,11.558,0,0,0,1.062,5.135A35.813,35.813,0,0,1,31.273,135.006ZM46.5,142.443s-.354.354-.531.354a.655.655,0,0,1-.531-.354c-1.24-1.594-3.187-4.781-2.479-8.5.177-1.062,2.125-1.594,3.01-1.594,1.062,0,2.833.531,3.01,1.594C49.689,137.662,47.741,140.849,46.5,142.443Zm2.833-2.125a9.566,9.566,0,0,0,1.062-5.135,29.823,29.823,0,0,0,7.437-3.9,11.552,11.552,0,0,1,2.833,3.719A34.9,34.9,0,0,1,49.335,140.318Zm12.041-5.843a14.18,14.18,0,0,0-2.656-3.719c6.729-4.781,12.218-12.218,16.645-20.894a12.755,12.755,0,0,1,4.25,1.771C74.656,121.726,68.458,129.34,61.376,134.475ZM81.562,107.56c-.531,1.24-1.062,2.3-1.594,3.364a9.091,9.091,0,0,0-4.25-1.771c7.614-15.405,11.333-35.06,10.27-52.767V55.324a8.637,8.637,0,0,1,4.25-.708A112.6,112.6,0,0,1,81.562,107.56Z" transform="translate(2218.911 63.796)"/></svg>
